<svg width="40" height="64" viewBox="0 0 40 64" fill="none" xmlns="http://www.w3.org/2000/svg">
<path d="M16.1268 43.1704C15.5411 43.7562 15.5411 44.706 16.1268 45.2918C16.7126 45.8776 17.6624 45.8776 18.2482 45.2918L30.4357 33.1043C31.0214 32.5185 31.0214 31.5687 30.4357 30.9829C29.8499 30.3972 28.9001 30.3972 28.3143 30.9829L16.1268 43.1704Z" fill="#9D432C"/>
<path d="M6.75089 43.1714C6.16563 43.7577 6.16648 44.7074 6.75278 45.2927C7.33909 45.8779 8.28884 45.8771 8.8741 45.2908L33.2491 20.8722C33.8344 20.2859 33.8335 19.3361 33.2472 18.7509C32.6609 18.1656 31.7112 18.1665 31.1259 18.7528L6.75089 43.1714Z" fill="#9D432C"/>
<path fill-rule="evenodd" clip-rule="evenodd" d="M39.3125 4C39.3125 2.06701 37.7455 0.5 35.8125 0.5H4.1875C2.25451 0.5 0.687504 2.06701 0.687504 4L0.6875 60C0.6875 61.933 2.2545 63.5 4.1875 63.5H35.8125C37.7455 63.5 39.3125 61.933 39.3125 60L39.3125 4ZM35.8125 3.5C36.0886 3.5 36.3125 3.72386 36.3125 4L36.3125 60C36.3125 60.2761 36.0886 60.5 35.8125 60.5H4.1875C3.91136 60.5 3.6875 60.2761 3.6875 60L3.6875 4C3.6875 3.72386 3.91136 3.5 4.1875 3.5L35.8125 3.5Z" fill="#9D432C"/>
</svg>
