<svg width="68" height="43" viewBox="0 0 68 43" fill="none" xmlns="http://www.w3.org/2000/svg">
<path d="M0.5 4.45373C0.5 2.52074 2.067 0.953735 4 0.953735H64C65.933 0.953735 67.5 2.52074 67.5 4.45374V29.845C67.5 30.6734 66.8284 31.345 66 31.345C65.1716 31.345 64.5 30.6734 64.5 29.845V25.8668H55.5566C54.7282 25.8668 54.0566 25.1952 54.0566 24.3668C54.0566 23.5383 54.7282 22.8668 55.5566 22.8668H64.5V4.45374C64.5 4.17759 64.2761 3.95374 64 3.95374H37.8188V10.9755C37.8188 11.8039 37.1473 12.4755 36.3188 12.4755C35.4904 12.4755 34.8188 11.8039 34.8188 10.9755V3.95374H4C3.72386 3.95374 3.5 4.17759 3.5 4.45373V38.8016C3.5 39.0777 3.72386 39.3016 4 39.3016H34.3188C34.595 39.3016 34.8188 39.0777 34.8188 38.8016V19.4972C34.8188 18.6688 35.4904 17.9972 36.3188 17.9972C37.1473 17.9972 37.8188 18.6688 37.8188 19.4972V22.8668H47.3119C48.1403 22.8668 48.8119 23.5383 48.8119 24.3668C48.8119 25.1952 48.1403 25.8668 47.3119 25.8668H37.8188V33.4972L37.8188 33.504V37.1425L37.8188 37.1493V39.3015H64C64.2761 39.3015 64.5 39.0777 64.5 38.8015V37.1493C64.5 36.3209 65.1716 35.6493 66 35.6493C66.8284 35.6493 67.5 36.3209 67.5 37.1493V38.8015C67.5 40.7345 65.933 42.3015 64 42.3015H34.8188V42.2661C34.6555 42.2895 34.4886 42.3016 34.3188 42.3016H4C2.067 42.3016 0.5 40.7345 0.5 38.8016V4.45373Z" fill="#9D432C"/>
</svg>
