<svg width="80" height="80" viewBox="0 0 80 80" fill="none" xmlns="http://www.w3.org/2000/svg">
<path fill-rule="evenodd" clip-rule="evenodd" d="M14.9233 66.7856C12.9903 66.7856 11.4233 65.2186 11.4233 63.2856V17C11.4233 15.067 12.9903 13.5 14.9233 13.5H22.5277C24.4607 13.5 26.0277 15.067 26.0277 17V22.2033H32.698V17C32.698 15.067 34.265 13.5 36.198 13.5H43.8024C45.7354 13.5 47.3024 15.067 47.3024 17V22.2033H53.9727V17C53.9727 15.067 55.5397 13.5 57.4727 13.5H65.077C67.01 13.5 68.577 15.067 68.577 17L68.577 63.2856C68.577 65.2186 67.01 66.7856 65.077 66.7856H57.4727C55.5397 66.7856 53.9727 65.2186 53.9727 63.2856V58.0823H47.3024V63.2856C47.3024 65.2186 45.7354 66.7856 43.8024 66.7856H36.198C34.265 66.7856 32.698 65.2186 32.698 63.2856V58.0823H26.0277V63.2856C26.0277 65.2186 24.4607 66.7856 22.5277 66.7856H14.9233ZM56.9727 56.604C56.9728 56.5968 56.9728 56.5896 56.9728 56.5823C56.9728 56.5751 56.9728 56.5679 56.9727 56.5607L56.9727 39.6811C56.9728 39.6738 56.9728 39.6666 56.9728 39.6593C56.9728 39.652 56.9728 39.6448 56.9727 39.6376V23.7252C56.9728 23.7179 56.9728 23.7106 56.9728 23.7033C56.9728 23.696 56.9728 23.6887 56.9727 23.6815V17C56.9727 16.7239 57.1965 16.5 57.4727 16.5L65.077 16.5C65.3532 16.5 65.577 16.7239 65.577 17L65.577 63.2856C65.577 63.5617 65.3532 63.7856 65.077 63.7856H57.4727C57.1965 63.7856 56.9727 63.5617 56.9727 63.2856V56.604ZM53.9727 25.2033H47.3024V38.1593H53.9727V25.2033ZM53.9727 41.1593H47.3024V55.0823H53.9727V41.1593ZM26.0277 38.1593L26.0277 25.2033H32.698V38.1593H26.0277ZM26.0277 55.0823L26.0277 41.1593H32.698V55.0823H26.0277ZM14.4233 63.2856C14.4233 63.5617 14.6472 63.7856 14.9233 63.7856H22.5277C22.8039 63.7856 23.0277 63.5617 23.0277 63.2856L23.0277 17C23.0277 16.7239 22.8038 16.5 22.5277 16.5L14.9233 16.5C14.6472 16.5 14.4233 16.7239 14.4233 17L14.4233 63.2856ZM35.698 56.603V63.2856C35.698 63.5617 35.9219 63.7856 36.198 63.7856H43.8024C44.0785 63.7856 44.3024 63.5617 44.3024 63.2856V17C44.3024 16.7239 44.0785 16.5 43.8024 16.5L36.198 16.5C35.9219 16.5 35.698 16.7239 35.698 17V23.6825L35.6981 23.7033L35.698 23.7241V39.6386L35.6981 39.6593L35.698 39.68L35.698 56.5617L35.6981 56.5823L35.698 56.603Z" fill="black"/>
</svg>
