<svg width="80" height="80" viewBox="0 0 80 80" fill="none" xmlns="http://www.w3.org/2000/svg">
<path fill-rule="evenodd" clip-rule="evenodd" d="M38.1035 18.5C37.2751 18.5 36.6035 19.1716 36.6035 20C36.6035 20.8284 37.2751 21.5 38.1035 21.5H43.1852L46.8019 27.5279L39.5862 44.3645L32.9645 28.9138H33.6552C34.4836 28.9138 35.1552 28.2422 35.1552 27.4138C35.1552 26.5854 34.4836 25.9138 33.6552 25.9138H26.2414C25.413 25.9138 24.7414 26.5854 24.7414 27.4138C24.7414 28.2422 25.413 28.9138 26.2414 28.9138H29.7006L37.3114 46.6724H33.5802C32.8283 39.1878 26.5103 33.3448 18.8276 33.3448C10.6385 33.3448 4 39.9834 4 48.1724C4 56.3615 10.6385 63 18.8276 63C26.5103 63 32.8283 57.157 33.5802 49.6724H39.5862C40.1863 49.6724 40.7286 49.3148 40.965 48.7633L48.6749 30.7734L51.7231 36.1078C47.9658 38.7976 45.5173 43.1991 45.5173 48.1724C45.5173 56.3615 52.1559 63 60.3449 63C68.534 63 75.1725 56.3615 75.1725 48.1724C75.1725 39.9834 68.534 33.3448 60.3449 33.3448C58.2023 33.3448 56.1658 33.7993 54.3266 34.6171L49.7772 26.6557L45.6121 19.7138C45.1602 18.9607 44.3465 18.5 43.4683 18.5H38.1035ZM53.2214 38.7298L59.0425 48.9166C59.4535 49.6359 60.3698 49.8858 61.0891 49.4748C61.8083 49.0637 62.0582 48.1475 61.6472 47.4282L55.8249 37.2392C57.2175 36.6629 58.7441 36.3448 60.3449 36.3448C66.8771 36.3448 72.1725 41.6402 72.1725 48.1724C72.1725 54.7046 66.8771 60 60.3449 60C53.8127 60 48.5173 54.7046 48.5173 48.1724C48.5173 44.315 50.364 40.8888 53.2214 38.7298ZM30.5609 46.6724H18.8276C17.9992 46.6724 17.3276 47.344 17.3276 48.1724C17.3276 49.0008 17.9992 49.6724 18.8276 49.6724H30.5609C29.8239 55.4964 24.8517 60 18.8276 60C12.2954 60 7 54.7046 7 48.1724C7 41.6402 12.2954 36.3448 18.8276 36.3448C24.8516 36.3448 29.8238 40.8484 30.5609 46.6724Z" fill="black"/>
</svg>
