<svg width="80" height="80" viewBox="0 0 80 80" fill="none" xmlns="http://www.w3.org/2000/svg">
<path fill-rule="evenodd" clip-rule="evenodd" d="M44.1983 55.5H46.9426V64.6666C46.9426 65.4951 47.6142 66.1666 48.4426 66.1666C49.2711 66.1666 49.9426 65.4951 49.9426 64.6666V55.5H60.4427C69.3713 55.5 76.6094 48.2619 76.6094 39.3333C76.6094 31.3525 70.8275 24.7237 63.2231 23.4051C62.5829 15.8034 56.21 9.83337 48.4427 9.83337C40.6755 9.83337 34.3027 15.8032 33.6623 23.4048C26.6925 24.6128 21.2528 30.2841 20.3942 37.3676H16.5436C14.6146 37.3676 12.8953 38.5839 12.2531 40.4029C11.8834 41.4502 11.4543 42.4741 10.9683 43.4698H7C6.17157 43.4698 5.5 44.1414 5.5 44.9698C5.5 45.7983 6.17157 46.4698 7 46.4698H9.2764C9.02799 46.8549 8.77032 47.2343 8.50357 47.6077L7.19844 49.4345C6.09382 50.9806 5.5 52.8333 5.5 54.7335V64.3278C5.5 66.2608 7.067 67.8278 9 67.8278H13.9594C15.3867 67.8278 16.6711 66.961 17.2051 65.6373L17.5524 64.7767H31.927L32.4955 65.9038C33.0904 67.0836 34.2992 67.8278 35.6205 67.8278H40.6983C42.6313 67.8278 44.1983 66.2608 44.1983 64.3278V55.5ZM23.4216 37.3676H32.6893C34.7128 37.3676 36.5163 38.6435 37.1899 40.5516C37.5406 41.5449 37.9409 42.5188 38.3891 43.4698H42.6983C43.5267 43.4698 44.1983 44.1414 44.1983 44.9698C44.1983 45.7983 43.5267 46.4698 42.6983 46.4698H40.0088C40.2388 46.8452 40.4768 47.2159 40.7227 47.5816L40.8208 47.7275L42.276 49.4589C43.0281 50.3536 43.5743 51.3917 43.8882 52.5H46.9426V32.6666C46.9426 31.8382 47.6142 31.1666 48.4426 31.1666C49.2711 31.1666 49.9426 31.8382 49.9426 32.6666V40.9062L58.4385 36.6583C59.1795 36.2878 60.0805 36.5882 60.4509 37.3291C60.8214 38.0701 60.5211 38.9711 59.7801 39.3416L49.9426 44.2603V52.5H60.4427C67.7145 52.5 73.6094 46.6051 73.6094 39.3333C73.6094 32.4659 68.3507 26.825 61.6414 26.2204C60.851 26.1492 60.2593 25.477 60.2763 24.6953L60.2761 24.6667C60.2761 18.1313 54.9781 12.8334 48.4427 12.8334C42.4155 12.8334 37.4407 17.3395 36.7036 23.1666H40.4426C41.271 23.1666 41.9426 23.8382 41.9426 24.6666C41.9426 25.4951 41.271 26.1666 40.4426 26.1666H36.4426C29.8388 26.1666 24.3706 31.0282 23.4216 37.3676ZM15.082 41.4016C15.3008 40.7819 15.8865 40.3676 16.5436 40.3676H32.6893C33.4409 40.3676 34.1108 40.8415 34.361 41.5503C35.0835 43.5969 35.9985 45.5686 37.0928 47.4392L35.6353 47.6237C28.6712 48.5051 21.6258 48.5356 14.6544 47.7143L12.2172 47.4273C12.5177 46.9352 12.8048 46.4352 13.0782 45.9279C13.2103 45.7688 13.3102 45.582 13.3679 45.3774C14.0275 44.094 14.6005 42.7657 15.082 41.4016ZM36.012 50.5999L38.9984 50.2219L39.9795 51.3892C40.5364 52.0517 40.9153 52.8382 41.0894 53.6748C38.3036 54.478 35.8336 54.5363 34.811 54.4583C33.985 54.3953 33.2643 55.0138 33.2013 55.8399C33.1383 56.6659 33.7569 57.3866 34.5829 57.4496C35.8143 57.5435 38.324 57.4829 41.1983 56.7531V64.3278C41.1983 64.6039 40.9745 64.8278 40.6983 64.8278H35.6205C35.4318 64.8278 35.2591 64.7215 35.1741 64.5529L33.774 61.7767H15.5278L14.423 64.5149C14.3467 64.704 14.1633 64.8278 13.9594 64.8278H9C8.72386 64.8278 8.5 64.6039 8.5 64.3278V56.8806C10.314 57.3967 12.8303 57.7947 15.5057 57.441C16.327 57.3324 16.9047 56.5786 16.7962 55.7574C16.6876 54.9361 15.9338 54.3583 15.1125 54.4669C12.4831 54.8145 10.0097 54.2607 8.57773 53.7615C8.72698 52.8344 9.08852 51.9496 9.63946 51.1784L10.3209 50.2246L14.3034 50.6937C21.5166 51.5434 28.8064 51.5119 36.012 50.5999Z" fill="black"/>
</svg>
