<svg width="80" height="80" viewBox="0 0 80 80" fill="none" xmlns="http://www.w3.org/2000/svg">
<path fill-rule="evenodd" clip-rule="evenodd" d="M18.7273 8.5C19.5557 8.5 20.2273 9.17157 20.2273 10V13.1154H59.7727V10C59.7727 9.17157 60.4443 8.5 61.2727 8.5C62.1012 8.5 62.7727 9.17157 62.7727 10V43.1154H66C66.8284 43.1154 67.5 43.787 67.5 44.6154C67.5 45.4438 66.8284 46.1154 66 46.1154H61.6862L42.9275 57.3077L62.0413 68.7119C62.7527 69.1363 62.9853 70.0571 62.5609 70.7686C62.1364 71.48 61.2156 71.7126 60.5042 71.2881L40 59.0544L19.4958 71.2881C18.7844 71.7126 17.8636 71.48 17.4391 70.7686C17.0147 70.0571 17.2473 69.1363 17.9587 68.7119L37.0725 57.3077L18.3138 46.1154H14C13.1716 46.1154 12.5 45.4438 12.5 44.6154C12.5 43.787 13.1716 43.1154 14 43.1154H17.2273V10C17.2273 9.17157 17.8988 8.5 18.7273 8.5ZM20.2273 16.1154V26.9615H59.7727V16.1154H20.2273ZM59.7727 29.9615H20.2273V43.1154H59.7727V29.9615ZM55.8311 46.1154H24.1689L40 55.561L55.8311 46.1154Z" fill="black"/>
</svg>
