<svg width="16" height="12" viewBox="0 0 16 12" fill="none" xmlns="http://www.w3.org/2000/svg">
<path d="M5.16613 11.7751C4.94125 11.7752 4.71857 11.7309 4.51083 11.6448C4.30309 11.5587 4.11438 11.4325 3.9555 11.2733L0.295374 7.61456C-0.098458 7.2206 -0.098458 6.58199 0.295374 6.18804C0.689332 5.7942 1.32794 5.7942 1.72189 6.18804L5.16613 9.63227L14.2781 0.520288C14.6721 0.126457 15.3107 0.126457 15.7046 0.520288C16.0985 0.914246 16.0985 1.55285 15.7046 1.94681L6.37675 11.2733C6.21788 11.4325 6.02916 11.5587 5.82142 11.6448C5.61368 11.7309 5.391 11.7752 5.16613 11.7751Z" fill="white"/>
</svg>
