<svg width="64" height="51" viewBox="0 0 64 51" fill="none" xmlns="http://www.w3.org/2000/svg">
<path fill-rule="evenodd" clip-rule="evenodd" d="M7.6859 14.1581C6.99743 15.3144 6.26043 16.4427 5.47651 17.54L3.16837 20.7707C1.43294 23.1997 0.5 26.1104 0.5 29.0958V46.6154C0.5 48.5484 2.067 50.1154 4 50.1154H14.6391C16.0664 50.1154 17.3508 49.2486 17.8848 47.9249L19.0735 44.9787H44.5972L46.2174 48.1914C46.8124 49.3713 48.0212 50.1154 49.3425 50.1154H60.1C62.033 50.1154 63.6 48.5484 63.6 46.6154V29.0958C63.6 26.0885 62.5391 23.1776 60.6042 20.8754L58.1189 17.9186L57.5617 17.0899C56.9188 16.1338 56.3107 15.1559 55.7384 14.1581H62.1C62.9284 14.1581 63.6 13.4865 63.6 12.6581C63.6 11.8297 62.9284 11.1581 62.1 11.1581H54.1544C53.37 9.53752 52.6756 7.87295 52.0751 6.17186L51.7394 5.2209C50.822 2.62234 48.3658 0.884644 45.6101 0.884644H17.9718C15.2161 0.884644 12.7599 2.62234 11.8425 5.2209L11.7473 5.49075C11.0621 7.43152 10.255 9.32431 9.33165 11.1581L2 11.1581C1.17157 11.1581 0.5 11.8297 0.5 12.6581C0.5 13.4865 1.17157 14.1581 2 14.1581L7.6859 14.1581ZM17.9718 3.88464C16.488 3.88464 15.1654 4.82032 14.6714 6.21955L14.5762 6.48941C13.7829 8.73651 12.8356 10.923 11.7422 13.0338C11.6834 13.262 11.5721 13.4692 11.4222 13.6417C10.6937 15.0032 9.90394 16.332 9.05502 17.6242L22.0656 19.1568C29.037 19.978 36.0825 19.9475 43.0465 19.0661L54.3358 17.6372C52.25 14.3531 50.5422 10.8419 49.2462 7.17052L48.9105 6.21955C48.4165 4.82033 47.0939 3.88464 45.6101 3.88464H17.9718ZM56.2965 20.413L43.4232 22.0424C36.2176 22.9544 28.9278 22.9859 21.7146 22.1362L7.10896 20.4157L5.60939 22.5146C4.42401 24.1738 3.71225 26.1172 3.54063 28.1374C5.90999 29.0832 10.6752 30.3398 15.7922 29.6634C16.6135 29.5548 17.3673 30.1326 17.4759 30.9539C17.5844 31.7752 17.0067 32.529 16.1854 32.6375C11.1473 33.3035 6.44672 32.3212 3.5 31.3176V46.6154C3.5 46.8916 3.72386 47.1154 4 47.1154H14.6391C14.843 47.1154 15.0264 46.9916 15.1027 46.8025L17.0489 41.9787H46.4442L48.8961 46.8406C48.9811 47.0091 49.1538 47.1154 49.3425 47.1154H60.1C60.3761 47.1154 60.6 46.8916 60.6 46.6154V31.1541C55.3547 32.6811 50.667 32.8102 48.5152 32.6461C47.6892 32.5831 47.0707 31.8624 47.1337 31.0364C47.1967 30.2104 47.9174 29.5918 48.7434 29.6548C50.6802 29.8025 55.3725 29.6755 60.5424 28.0362C60.3333 26.1177 59.5596 24.2952 58.3076 22.8057L56.2965 20.413Z" fill="#9D432C"/>
</svg>
