<svg width="68" height="48" viewBox="0 0 68 48" fill="none" xmlns="http://www.w3.org/2000/svg">
<path fill-rule="evenodd" clip-rule="evenodd" d="M32.9128 3.5C29.8042 3.5 27.616 5.68492 27.616 8.00286C27.616 8.83128 26.9444 9.50286 26.116 9.50286C25.2875 9.50286 24.616 8.83128 24.616 8.00286C24.616 3.68937 28.5077 0.5 32.9128 0.5C37.3142 0.5 41.2096 3.68894 41.2096 8.00286C41.2096 9.93689 40.4905 11.724 39.2313 13.0718C38.7997 13.5333 38.3219 13.9964 37.8701 14.4343C37.7891 14.5128 37.7089 14.5905 37.63 14.6673C37.0948 15.1876 36.5995 15.6801 36.1691 16.1776C35.4856 16.9675 35.0813 17.6414 34.9326 18.2635C37.0384 18.4806 39.0695 19.1943 40.8491 20.3551L40.8576 20.3606L64.6433 36.1064C67.3275 37.8847 68.0413 40.7897 67.1135 43.2468C66.1994 45.6673 63.7641 47.5 60.5513 47.5H7.45027C4.27135 47.5 1.84512 45.7019 0.910721 43.3108C-0.0378178 40.8834 0.62442 37.9962 3.24388 36.186L25.9589 20.4946C27.7308 19.2865 29.7697 18.5306 31.8931 18.2817C32.0573 16.6385 32.975 15.2841 33.9005 14.2146C34.4233 13.6104 35.0007 13.0395 35.5386 12.5164C35.6249 12.4325 35.7099 12.3501 35.7936 12.2689C36.2469 11.8294 36.6626 11.4264 37.0392 11.0236C37.7767 10.2343 38.2096 9.18025 38.2096 8.00286C38.2096 5.68534 36.0186 3.5 32.9128 3.5ZM33.0079 21.2002C31.0886 21.2819 29.2313 21.8955 27.6527 22.9708C27.6514 22.9717 27.6502 22.9725 27.649 22.9733L4.94941 38.654C4.94934 38.6541 4.94948 38.654 4.94941 38.654C3.49865 39.6567 3.25191 41.0595 3.70496 42.2189C4.17217 43.4145 5.45795 44.5 7.45027 44.5H60.5513C62.5642 44.5 63.8505 43.3957 64.3069 42.187C64.7495 41.015 64.482 39.5984 62.9874 38.6079C62.9872 38.6078 62.9875 38.608 62.9874 38.6079L39.2101 22.8678C39.2089 22.867 39.2076 22.8661 39.2063 22.8653C37.487 21.7449 35.4594 21.1611 33.3911 21.1941L33.0079 21.2002Z" fill="#9D432C"/>
</svg>
