<svg width="24" height="24" viewBox="0 0 24 24" fill="none" xmlns="http://www.w3.org/2000/svg">
<mask id="mask0_341_2568" style="mask-type:alpha" maskUnits="userSpaceOnUse" x="0" y="0" width="24" height="24">
<path d="M8 14.5716L6.17716 12.8355C5.53522 12.2242 4.51329 12.2707 3.92953 12.9378V12.9378C3.40196 13.5408 3.41749 14.4455 3.96544 15.0299L9.90739 21.368C10.2855 21.7713 10.8127 22.0001 11.3655 22.0001C12.4505 22.0001 14.2343 22.0001 16 22.0001C18.4 22.0001 20 20.0001 20 18.0001C20 18.0001 20 18.0001 20 18.0001C20 18.0001 20 11.143 20 9.42871" stroke="#161616" stroke-width="1.5" stroke-linecap="round" stroke-linejoin="round"/>
<path d="M17 9.99958C17 9.99958 17 9.87447 17 9.42815C17 7.14244 20 7.14244 20 9.42815" stroke="#161616" stroke-width="1.5" stroke-linecap="round" stroke-linejoin="round"/>
<path d="M14 9.99986C14 9.99986 14 9.1782 14 8.28557C14 5.99986 17 5.99986 17 8.28557C17 8.50873 17 9.20528 17 9.42843C17 9.87475 17 9.99986 17 9.99986" stroke="#161616" stroke-width="1.5" stroke-linecap="round" stroke-linejoin="round"/>
<path d="M11 10.0004C11 10.0004 11 8.6162 11 7.50042C11 5.2147 14 5.2147 14 7.50042C14 7.50042 14 7.50042 14 7.50042C14 7.50042 14 8.06298 14 8.28613C14 9.17876 14 10.0004 14 10.0004" stroke="#161616" stroke-width="1.5" stroke-linecap="round" stroke-linejoin="round"/>
<path d="M8 14.5714V3.5C8 2.67157 8.67157 2 9.5 2V2C10.3284 2 11 2.67056 11 3.49899C11 4.68968 11 6.34156 11 7.5C11 8.61578 11 10 11 10" stroke="#161616" stroke-width="1.5" stroke-linecap="round" stroke-linejoin="round"/>
</mask>
<g mask="url(#mask0_341_2568)">
<rect width="24" height="24" fill="#9D432C"/>
</g>
</svg>
