<svg width="33" height="20" viewBox="0 0 33 20" fill="none" xmlns="http://www.w3.org/2000/svg">
<path opacity="0.6" d="M13.1737 0.0474644C13.0483 0.0659771 12.725 0.13175 12.4559 0.18778C11.0832 0.477669 10.0693 1.64551 10.4281 2.52394C10.5806 2.88837 10.787 3.03795 11.3882 3.22455C11.6484 3.30883 11.8818 3.44866 11.9623 3.57972C12.0433 3.70104 12.142 4.16827 12.1958 4.62624C12.3034 5.53245 12.2585 8.12099 12.1242 8.48542C12.0433 8.70028 12.0344 8.69102 11.6666 8.2613C10.8857 7.33609 9.15407 4.2433 8.49903 2.60823C8.14017 1.71128 7.844 1.33759 7.22499 1.01993L6.65979 0.730043L3.87822 0.758301C1.4106 0.786558 1.06952 0.805073 0.791594 0.954645C0.0916408 1.33759 -0.168502 2.08545 0.10942 2.94489C0.289087 3.52418 2.00294 6.89712 3.01685 8.68176C5.28702 12.6998 7.57543 15.7458 9.30707 17.0817C10.088 17.6893 11.0836 18.2403 11.9272 18.5302C13.1114 18.9414 14.0809 19.0534 16.5396 19.0534C18.5496 19.0534 18.8187 19.0349 19.1598 18.8761C19.7072 18.6145 19.9673 18.1472 20.0389 17.2785C20.1016 16.4561 20.2181 16.0357 20.4067 15.8676C20.5236 15.7648 20.7655 15.9796 22.0396 17.3438C23.6458 19.0442 24.1844 19.4836 25.1084 19.8013C25.6558 19.9977 25.8444 20.0069 28.2044 19.9977C31.022 19.9791 31.5783 19.9139 32.1795 19.4836C32.7897 19.0539 32.9422 18.783 32.9871 18.0727C33.0231 17.5309 32.996 17.3906 32.7447 16.8766C32.2783 15.9046 31.6054 15.0637 29.7568 13.167C28.4917 11.8681 27.9803 11.2888 27.9803 11.1392C27.9803 11.0179 28.3569 10.4196 28.8506 9.73754C32.3498 4.95365 33.068 3.68252 32.9871 2.37486C32.9422 1.67425 32.6998 1.29082 32.0986 1.02919C31.6948 0.8421 31.5063 0.832842 28.4557 0.832842C25.5216 0.832842 25.2076 0.851357 24.8754 1.01019C24.3458 1.26256 23.9958 1.75756 23.4577 3.0282C22.6591 4.93416 21.4028 7.12075 20.5236 8.15801C20.1914 8.55022 20.1287 8.58773 20.0749 8.43816C20.0389 8.33536 20.03 6.93366 20.0572 5.31759C20.1199 2.01919 20.066 1.60799 19.5275 0.963415C18.8725 0.18778 17.9751 -0.0178223 15.3011 0.00117874C14.2503 0.0104351 13.2995 0.0289497 13.1737 0.0474644ZM17.6962 2.03771C17.8848 2.08448 18.0911 2.17802 18.1449 2.23405C18.2165 2.3086 18.2347 3.22455 18.2076 5.43891C18.1716 8.98968 18.2254 9.38188 18.8088 10.0922C19.374 10.7743 19.9304 10.8956 20.693 10.4942C21.8239 9.91489 23.6992 7.12075 25.0092 4.10298C25.2605 3.51444 25.5028 2.96292 25.5478 2.88837C25.6105 2.76706 26.0414 2.74806 28.3742 2.72029L31.1287 2.70177L31.0749 2.90737C30.8774 3.60798 29.5673 5.664 27.8895 7.88761C26.3731 9.90563 26.0947 10.4294 26.0947 11.2328C26.1036 11.9992 26.346 12.3446 28.3738 14.4284C29.6927 15.7926 30.4198 16.615 30.7516 17.1285C31.1731 17.7921 31.2003 17.8856 31.0655 17.9601C30.9757 18.0162 29.827 18.0537 28.3466 18.063C25.1075 18.0722 25.4481 18.2218 23.3127 15.9606C21.6166 14.1667 21.2849 13.9236 20.504 13.9144C19.3193 13.9144 18.4135 14.9984 18.2338 16.6242L18.1711 17.2128L16.0535 17.1567C14.1871 17.11 13.8371 17.0817 13.0745 16.8766C10.6073 16.2028 8.77696 14.4557 6.04031 10.1297C4.62262 7.87787 2.04739 3.10323 2.04739 2.70128C2.04739 2.57997 6.07634 2.57071 6.37251 2.69203C6.51615 2.74806 6.65979 2.97217 6.83898 3.41163C7.50291 5.05596 9.02821 7.84035 9.98878 9.14851C10.4824 9.81208 11.1285 10.4381 11.5141 10.6062C11.909 10.7743 12.5729 10.7743 12.8868 10.6062C13.4343 10.3071 13.7931 9.644 13.9728 8.57847C14.1253 7.66301 14.0982 4.54196 13.9368 3.72929C13.7931 3.03794 13.5508 2.43966 13.3178 2.2438C13.0843 2.03819 13.1475 1.96365 13.605 1.92614C14.2952 1.85111 17.3191 1.93491 17.6962 2.03771Z" fill="white"/>
</svg>
